<svg id="Layer_1" data-name="Layer 1" xmlns="http://www.w3.org/2000/svg" viewBox="0 0 187.93 66.72"><defs><style>.cls-1{fill:#39c6f4;}</style></defs><title>DBF_BLUE</title><path class="cls-1" d="M350.18,265.25q15.68,0,24.42,8.64t8.74,24.72q0,16.08-8.74,24.72T350.18,332H326.63V265.25Zm0,57.52q10.62,0,16.23-6.32T372,298.61q0-11.52-5.61-17.84t-16.23-6.32H337.44v48.32Z" transform="translate(-326.63 -265.25)"/><path class="cls-1" d="M399.42,332V265.25H425.7q12,0,17.59,4.85t5.56,13.45a15.32,15.32,0,0,1-3,9.35,13.74,13.74,0,0,1-8.9,5.21v.1a15.72,15.72,0,0,1,10.06,5.3,15.11,15.11,0,0,1,3.59,10q0,8.59-6.27,13.55t-18.19,5ZM410,294h14.86q12.74,0,12.74-9.81t-12.74-9.8H410Zm0,29h16.58q6.36,0,9.56-2.63a10.15,10.15,0,0,0,0-14.76Q433,303,426.61,303H410Z" transform="translate(-326.63 -265.25)"/><path class="cls-1" d="M514.56,274.55h-37.4V294h29.31v9.3H477.16V332H466.34V265.25h48.22Z" transform="translate(-326.63 -265.25)"/></svg>